{"title":"Micha.Wertheim.Voor.De.Grap.TVRIP-MisterDeee","uid":5992924,"size":532532526,"categoryP":"video","categoryS":"tv_shows","magnet":"?xt=urn:btih:55f13af828ff15201604807a7e77d2bf342134eb&amp;dn=Micha.Wertheim.Voor.De.Grap.TVRIP-MisterDeee&amp;tr=udp%3A%2F%2Ftracker.openbittorrent.com%3A80&amp;tr=udp%3A%2F%2Fopen.demonii.com%3A1337&amp;tr=udp%3A%2F%2Ftracker.coppersurfer.tk%3A6969&amp;tr=udp%3A%2F%2Fexodus.desync.com%3A6969","seeders":4,"leechers":0,"uploader":"MisterDeee","files":-1,"time":1290952753,"description":"Caberetshow: Micha Wertheim - Voor De Grap\nTVRIP van 27-11-2010\n\n\nGeneral\nFormat                           : AVI\nFormat/Info                      : Audio Video Interleave\nFile size                        : 508 MiB\nDuration                         : 1h 26mn\nOverall bit rate                 : 824 Kbps\nWriting application              : Lavf52.73.0\n\nVideo\nFormat                           : MPEG-4 Visual\nCodec ID                         : DIV3\nCodec ID/Hint                    : DivX 3 Low\nDuration                         : 1h 26mn\nBit rate                         : 691 Kbps\nWidth                            : 720 pixels\nHeight                           : 576 pixels\nDisplay aspect ratio             : 5:4\nFrame rate                       : 25.000 fps\nStandard                         : PAL\nColor space                      : YUV\nChroma subsampling               : 4:2:0\nBit depth                        : 8 bits\nBits/(Pixel*Frame)               : 0.067\nStream size                      : 426 MiB (84%)\n\nAudio\nFormat                           : MPEG Audio\nFormat version                   : Version 1\nFormat profile                   : Layer 3\nMode                             : Joint stereo\nMode extension                   : MS Stereo\nCodec ID                         : 55\nCodec ID/Hint                    : MP3\nDuration                         : 1h 26mn\nBit rate mode                    : Variable\nBit rate                         : 105 Kbps\nChannel(s)                       : 2 channels\nSampling rate                    : 44.1 KHz\nStream size                      : 74.5 MiB (15%)\nAlignment                        : Aligned on interleaves\nInterleave, duration             : 26 ms (0.65 video frame)\nInterleave, preload duration     : 7 ms\n","torrent":{"xt":"urn:btih:55f13af828ff15201604807a7e77d2bf342134eb","amp;dn":"Micha.Wertheim.Voor.De.Grap.TVRIP-MisterDeee","amp;tr":["udp%3A%2F%2Ftracker.openbittorrent.com%3A80","udp%3A%2F%2Fopen.demonii.com%3A1337","udp%3A%2F%2Ftracker.coppersurfer.tk%3A6969","udp%3A%2F%2Fexodus.desync.com%3A6969"],"infoHash":"55f13af828ff15201604807a7e77d2bf342134eb","infoHashBuffer":{"type":"Buffer","data":[85,241,58,248,40,255,21,32,22,4,128,122,126,119,210,191,52,33,52,235]},"announce":[],"urlList":[]}}